<?xml version="1.0" encoding="UTF-8" standalone="no"?>
<!-- Created with Inkscape (http://www.inkscape.org/) -->

<svg
   version="1.1"
   id="svg1"
   width="3027.4639"
   height="2565.9731"
   viewBox="0 0 3027.4639 2565.9731"
   xmlns="http://www.w3.org/2000/svg"
   xmlns:svg="http://www.w3.org/2000/svg">
  <defs
     id="defs1" />
  <g
     id="g1"
     transform="translate(-486.26931,-717.01344)">
    <g
       id="group-R5">
      <path
         id="path3"
         d="m 14999.4,5378.4 -11352.38,13975 h 7568.78 c 117.9,-800.9 3755.5,-13873 3783.6,-13975"
         style="display:inline;fill:#bfa8ff;fill-opacity:1;fill-rule:nonzero;stroke:none"
         transform="matrix(0.13333333,0,0,-0.13333333,0,4000)" />
      <path
         id="path4"
         d="M 26353,19353.4 14999.8,5377.6 18784.2,19353.4 Z"
         style="display:inline;fill:#754ef3;fill-opacity:1;fill-rule:nonzero;stroke:none"
         transform="matrix(0.13333333,0,0,-0.13333333,0,4000)" />
      <path
         id="path5"
         d="m 26353,19353.4 h -7568.8 l 4077.6,5269 z"
         style="display:inline;fill:#9766ff;fill-opacity:1;fill-rule:nonzero;stroke:none"
         transform="matrix(0.13333333,0,0,-0.13333333,0,4000)" />
      <path
         id="path6"
         d="M 11215.8,19353.4 H 3647.02 l 3272.76,5269 z"
         style="display:inline;fill:#9766ff;fill-opacity:1;fill-rule:nonzero;stroke:none"
         transform="matrix(0.13333333,0,0,-0.13333333,0,4000)" />
      <path
         id="path7"
         d="M 18784.2,19353.4 14999.8,5377.6 c 0,0 0,0.4 -0.4,0.8 -28.1,102 -3665.7,13174.1 -3783.6,13975 h 7568.4"
         style="display:inline;fill:#9766ff;fill-opacity:1;fill-rule:nonzero;stroke:none"
         transform="matrix(0.13333333,0,0,-0.13333333,0,4000)" />
      <path
         id="path8"
         d="m 22861.8,24622.4 -4077.6,-5269 -2737.8,3705.3 -1155.4,1563.7 h 7970.8"
         style="display:inline;fill:#754ef3;fill-opacity:1;fill-rule:nonzero;stroke:none"
         transform="matrix(0.13333333,0,0,-0.13333333,0,4000)" />
      <path
         id="path9"
         d="m 14891,24622.4 -1090.9,-1563.7 -2584.3,-3705.3 -4296.02,5269 H 14891"
         style="display:inline;fill:#754ef3;fill-opacity:1;fill-rule:nonzero;stroke:none"
         transform="matrix(0.13333333,0,0,-0.13333333,0,4000)" />
      <path
         id="path10"
         d="m 18784.2,19353.4 h -7568.4 l 3675.2,5269 z"
         style="display:inline;fill:#bfa8ff;fill-opacity:1;fill-rule:nonzero;stroke:none"
         transform="matrix(0.13333333,0,0,-0.13333333,0,4000)" />
    </g>
  </g>
</svg>
